<mxfile host="app.diagrams.net" modified="2023-04-26T18:56:26.099Z" agent="Mozilla/5.0 (Windows NT 10.0; Win64; x64) AppleWebKit/537.36 (KHTML, like Gecko) Chrome/112.0.0.0 Safari/537.36 OPR/98.0.0.0" etag="5tgxZNqD7LPLtYQvZ97I" version="21.2.2">
  <diagram name="Strona-1" id="ptKBFkSR5Me5YF2H6tBo">
    <mxGraphModel dx="2522" dy="958" grid="1" gridSize="10" guides="1" tooltips="1" connect="1" arrows="1" fold="1" page="1" pageScale="1" pageWidth="827" pageHeight="1169" math="0" shadow="0">
      <root>
        <mxCell id="0" />
        <mxCell id="1" parent="0" />
        <mxCell id="-UJnBMwhe2p7QvLc2iG4-4" value="Ship" style="swimlane;fontStyle=0;childLayout=stackLayout;horizontal=1;startSize=26;fillColor=none;horizontalStack=0;resizeParent=1;resizeParentMax=0;resizeLast=0;collapsible=1;marginBottom=0;whiteSpace=wrap;html=1;" vertex="1" parent="1">
          <mxGeometry x="140" y="540" width="170" height="158" as="geometry" />
        </mxCell>
        <mxCell id="-UJnBMwhe2p7QvLc2iG4-16" value="+ field: size" style="text;strokeColor=none;fillColor=none;align=left;verticalAlign=top;spacingLeft=4;spacingRight=4;overflow=hidden;rotatable=0;points=[[0,0.5],[1,0.5]];portConstraint=eastwest;whiteSpace=wrap;html=1;" vertex="1" parent="-UJnBMwhe2p7QvLc2iG4-4">
          <mxGeometry y="26" width="170" height="26" as="geometry" />
        </mxCell>
        <mxCell id="-UJnBMwhe2p7QvLc2iG4-5" value="+ method: checkIfSunk()" style="text;strokeColor=none;fillColor=none;align=left;verticalAlign=top;spacingLeft=4;spacingRight=4;overflow=hidden;rotatable=0;points=[[0,0.5],[1,0.5]];portConstraint=eastwest;whiteSpace=wrap;html=1;" vertex="1" parent="-UJnBMwhe2p7QvLc2iG4-4">
          <mxGeometry y="52" width="170" height="28" as="geometry" />
        </mxCell>
        <mxCell id="-UJnBMwhe2p7QvLc2iG4-26" value="+ field: locationX" style="text;strokeColor=none;fillColor=none;align=left;verticalAlign=top;spacingLeft=4;spacingRight=4;overflow=hidden;rotatable=0;points=[[0,0.5],[1,0.5]];portConstraint=eastwest;whiteSpace=wrap;html=1;" vertex="1" parent="-UJnBMwhe2p7QvLc2iG4-4">
          <mxGeometry y="80" width="170" height="26" as="geometry" />
        </mxCell>
        <mxCell id="-UJnBMwhe2p7QvLc2iG4-25" value="+ field: loactionY" style="text;strokeColor=none;fillColor=none;align=left;verticalAlign=top;spacingLeft=4;spacingRight=4;overflow=hidden;rotatable=0;points=[[0,0.5],[1,0.5]];portConstraint=eastwest;whiteSpace=wrap;html=1;" vertex="1" parent="-UJnBMwhe2p7QvLc2iG4-4">
          <mxGeometry y="106" width="170" height="26" as="geometry" />
        </mxCell>
        <mxCell id="-UJnBMwhe2p7QvLc2iG4-27" value="+ field: orientation" style="text;strokeColor=none;fillColor=none;align=left;verticalAlign=top;spacingLeft=4;spacingRight=4;overflow=hidden;rotatable=0;points=[[0,0.5],[1,0.5]];portConstraint=eastwest;whiteSpace=wrap;html=1;" vertex="1" parent="-UJnBMwhe2p7QvLc2iG4-4">
          <mxGeometry y="132" width="170" height="26" as="geometry" />
        </mxCell>
        <mxCell id="-UJnBMwhe2p7QvLc2iG4-12" value="battleship" style="swimlane;fontStyle=0;childLayout=stackLayout;horizontal=1;startSize=26;fillColor=none;horizontalStack=0;resizeParent=1;resizeParentMax=0;resizeLast=0;collapsible=1;marginBottom=0;whiteSpace=wrap;html=1;" vertex="1" parent="1">
          <mxGeometry x="155" y="710" width="140" height="52" as="geometry" />
        </mxCell>
        <mxCell id="-UJnBMwhe2p7QvLc2iG4-13" value="+ field: size = 4" style="text;strokeColor=none;fillColor=none;align=left;verticalAlign=top;spacingLeft=4;spacingRight=4;overflow=hidden;rotatable=0;points=[[0,0.5],[1,0.5]];portConstraint=eastwest;whiteSpace=wrap;html=1;" vertex="1" parent="-UJnBMwhe2p7QvLc2iG4-12">
          <mxGeometry y="26" width="140" height="26" as="geometry" />
        </mxCell>
        <mxCell id="-UJnBMwhe2p7QvLc2iG4-17" value="destroyer" style="swimlane;fontStyle=0;childLayout=stackLayout;horizontal=1;startSize=26;fillColor=none;horizontalStack=0;resizeParent=1;resizeParentMax=0;resizeLast=0;collapsible=1;marginBottom=0;whiteSpace=wrap;html=1;" vertex="1" parent="1">
          <mxGeometry x="155" y="841" width="140" height="52" as="geometry" />
        </mxCell>
        <mxCell id="-UJnBMwhe2p7QvLc2iG4-18" value="+ field: size = 2" style="text;strokeColor=none;fillColor=none;align=left;verticalAlign=top;spacingLeft=4;spacingRight=4;overflow=hidden;rotatable=0;points=[[0,0.5],[1,0.5]];portConstraint=eastwest;whiteSpace=wrap;html=1;" vertex="1" parent="-UJnBMwhe2p7QvLc2iG4-17">
          <mxGeometry y="26" width="140" height="26" as="geometry" />
        </mxCell>
        <mxCell id="-UJnBMwhe2p7QvLc2iG4-21" value="crusier" style="swimlane;fontStyle=0;childLayout=stackLayout;horizontal=1;startSize=26;fillColor=none;horizontalStack=0;resizeParent=1;resizeParentMax=0;resizeLast=0;collapsible=1;marginBottom=0;whiteSpace=wrap;html=1;" vertex="1" parent="1">
          <mxGeometry x="155" y="776" width="140" height="52" as="geometry" />
        </mxCell>
        <mxCell id="-UJnBMwhe2p7QvLc2iG4-22" value="+ field: size = 3" style="text;strokeColor=none;fillColor=none;align=left;verticalAlign=top;spacingLeft=4;spacingRight=4;overflow=hidden;rotatable=0;points=[[0,0.5],[1,0.5]];portConstraint=eastwest;whiteSpace=wrap;html=1;" vertex="1" parent="-UJnBMwhe2p7QvLc2iG4-21">
          <mxGeometry y="26" width="140" height="26" as="geometry" />
        </mxCell>
        <mxCell id="-UJnBMwhe2p7QvLc2iG4-97" style="edgeStyle=orthogonalEdgeStyle;rounded=0;orthogonalLoop=1;jettySize=auto;html=1;entryX=0.5;entryY=0;entryDx=0;entryDy=0;" edge="1" parent="1" source="-UJnBMwhe2p7QvLc2iG4-28" target="-UJnBMwhe2p7QvLc2iG4-4">
          <mxGeometry relative="1" as="geometry" />
        </mxCell>
        <mxCell id="-UJnBMwhe2p7QvLc2iG4-28" value="PlayerBoard" style="swimlane;fontStyle=0;childLayout=stackLayout;horizontal=1;startSize=26;fillColor=none;horizontalStack=0;resizeParent=1;resizeParentMax=0;resizeLast=0;collapsible=1;marginBottom=0;whiteSpace=wrap;html=1;" vertex="1" parent="1">
          <mxGeometry x="404" y="440" width="160" height="156" as="geometry" />
        </mxCell>
        <mxCell id="-UJnBMwhe2p7QvLc2iG4-29" value="+ field: size" style="text;strokeColor=none;fillColor=none;align=left;verticalAlign=top;spacingLeft=4;spacingRight=4;overflow=hidden;rotatable=0;points=[[0,0.5],[1,0.5]];portConstraint=eastwest;whiteSpace=wrap;html=1;" vertex="1" parent="-UJnBMwhe2p7QvLc2iG4-28">
          <mxGeometry y="26" width="160" height="26" as="geometry" />
        </mxCell>
        <mxCell id="-UJnBMwhe2p7QvLc2iG4-82" value="+ field: ships" style="text;strokeColor=none;fillColor=none;align=left;verticalAlign=top;spacingLeft=4;spacingRight=4;overflow=hidden;rotatable=0;points=[[0,0.5],[1,0.5]];portConstraint=eastwest;whiteSpace=wrap;html=1;" vertex="1" parent="-UJnBMwhe2p7QvLc2iG4-28">
          <mxGeometry y="52" width="160" height="26" as="geometry" />
        </mxCell>
        <mxCell id="-UJnBMwhe2p7QvLc2iG4-36" value="+ method: init()" style="text;strokeColor=none;fillColor=none;align=left;verticalAlign=top;spacingLeft=4;spacingRight=4;overflow=hidden;rotatable=0;points=[[0,0.5],[1,0.5]];portConstraint=eastwest;whiteSpace=wrap;html=1;" vertex="1" parent="-UJnBMwhe2p7QvLc2iG4-28">
          <mxGeometry y="78" width="160" height="26" as="geometry" />
        </mxCell>
        <mxCell id="-UJnBMwhe2p7QvLc2iG4-72" value="+ method: shipPlacement()" style="text;strokeColor=none;fillColor=none;align=left;verticalAlign=top;spacingLeft=4;spacingRight=4;overflow=hidden;rotatable=0;points=[[0,0.5],[1,0.5]];portConstraint=eastwest;whiteSpace=wrap;html=1;" vertex="1" parent="-UJnBMwhe2p7QvLc2iG4-28">
          <mxGeometry y="104" width="160" height="26" as="geometry" />
        </mxCell>
        <mxCell id="-UJnBMwhe2p7QvLc2iG4-37" value="+ method: getShipsCount()" style="text;strokeColor=none;fillColor=none;align=left;verticalAlign=top;spacingLeft=4;spacingRight=4;overflow=hidden;rotatable=0;points=[[0,0.5],[1,0.5]];portConstraint=eastwest;whiteSpace=wrap;html=1;" vertex="1" parent="-UJnBMwhe2p7QvLc2iG4-28">
          <mxGeometry y="130" width="160" height="26" as="geometry" />
        </mxCell>
        <mxCell id="-UJnBMwhe2p7QvLc2iG4-32" value="Actions" style="swimlane;fontStyle=0;childLayout=stackLayout;horizontal=1;startSize=26;fillColor=none;horizontalStack=0;resizeParent=1;resizeParentMax=0;resizeLast=0;collapsible=1;marginBottom=0;whiteSpace=wrap;html=1;" vertex="1" parent="1">
          <mxGeometry x="60" y="190" width="130" height="50" as="geometry" />
        </mxCell>
        <mxCell id="-UJnBMwhe2p7QvLc2iG4-66" value="&lt;span style=&quot;color: rgb(0, 0, 0); font-family: Helvetica; font-size: 12px; font-style: normal; font-variant-ligatures: normal; font-variant-caps: normal; font-weight: 400; letter-spacing: normal; orphans: 2; text-align: left; text-indent: 0px; text-transform: none; widows: 2; word-spacing: 0px; -webkit-text-stroke-width: 0px; background-color: rgb(251, 251, 251); text-decoration-thickness: initial; text-decoration-style: initial; text-decoration-color: initial; float: none; display: inline !important;&quot;&gt;+ method: shoot()&lt;/span&gt;" style="text;whiteSpace=wrap;html=1;" vertex="1" parent="-UJnBMwhe2p7QvLc2iG4-32">
          <mxGeometry y="26" width="130" height="24" as="geometry" />
        </mxCell>
        <mxCell id="-UJnBMwhe2p7QvLc2iG4-38" value="EnemyBoard" style="swimlane;fontStyle=0;childLayout=stackLayout;horizontal=1;startSize=26;fillColor=none;horizontalStack=0;resizeParent=1;resizeParentMax=0;resizeLast=0;collapsible=1;marginBottom=0;whiteSpace=wrap;html=1;" vertex="1" parent="1">
          <mxGeometry x="404" y="610" width="160" height="78" as="geometry" />
        </mxCell>
        <mxCell id="-UJnBMwhe2p7QvLc2iG4-40" value="+ method: init()" style="text;strokeColor=none;fillColor=none;align=left;verticalAlign=top;spacingLeft=4;spacingRight=4;overflow=hidden;rotatable=0;points=[[0,0.5],[1,0.5]];portConstraint=eastwest;whiteSpace=wrap;html=1;" vertex="1" parent="-UJnBMwhe2p7QvLc2iG4-38">
          <mxGeometry y="26" width="160" height="26" as="geometry" />
        </mxCell>
        <mxCell id="-UJnBMwhe2p7QvLc2iG4-39" value="+ field: size" style="text;strokeColor=none;fillColor=none;align=left;verticalAlign=top;spacingLeft=4;spacingRight=4;overflow=hidden;rotatable=0;points=[[0,0.5],[1,0.5]];portConstraint=eastwest;whiteSpace=wrap;html=1;" vertex="1" parent="-UJnBMwhe2p7QvLc2iG4-38">
          <mxGeometry y="52" width="160" height="26" as="geometry" />
        </mxCell>
        <mxCell id="-UJnBMwhe2p7QvLc2iG4-42" value="Board" style="swimlane;fontStyle=0;childLayout=stackLayout;horizontal=1;startSize=26;fillColor=none;horizontalStack=0;resizeParent=1;resizeParentMax=0;resizeLast=0;collapsible=1;marginBottom=0;whiteSpace=wrap;html=1;" vertex="1" parent="1">
          <mxGeometry x="404" y="349" width="160" height="78" as="geometry" />
        </mxCell>
        <mxCell id="-UJnBMwhe2p7QvLc2iG4-43" value="+ field: size" style="text;strokeColor=none;fillColor=none;align=left;verticalAlign=top;spacingLeft=4;spacingRight=4;overflow=hidden;rotatable=0;points=[[0,0.5],[1,0.5]];portConstraint=eastwest;whiteSpace=wrap;html=1;" vertex="1" parent="-UJnBMwhe2p7QvLc2iG4-42">
          <mxGeometry y="26" width="160" height="26" as="geometry" />
        </mxCell>
        <mxCell id="-UJnBMwhe2p7QvLc2iG4-44" value="+ method: init()" style="text;strokeColor=none;fillColor=none;align=left;verticalAlign=top;spacingLeft=4;spacingRight=4;overflow=hidden;rotatable=0;points=[[0,0.5],[1,0.5]];portConstraint=eastwest;whiteSpace=wrap;html=1;" vertex="1" parent="-UJnBMwhe2p7QvLc2iG4-42">
          <mxGeometry y="52" width="160" height="26" as="geometry" />
        </mxCell>
        <mxCell id="-UJnBMwhe2p7QvLc2iG4-45" value="NetClient" style="swimlane;fontStyle=0;childLayout=stackLayout;horizontal=1;startSize=26;fillColor=none;horizontalStack=0;resizeParent=1;resizeParentMax=0;resizeLast=0;collapsible=1;marginBottom=0;whiteSpace=wrap;html=1;" vertex="1" parent="1">
          <mxGeometry x="-100" y="620" width="140" height="104" as="geometry" />
        </mxCell>
        <mxCell id="-UJnBMwhe2p7QvLc2iG4-46" value="+ method: init()" style="text;strokeColor=none;fillColor=none;align=left;verticalAlign=top;spacingLeft=4;spacingRight=4;overflow=hidden;rotatable=0;points=[[0,0.5],[1,0.5]];portConstraint=eastwest;whiteSpace=wrap;html=1;" vertex="1" parent="-UJnBMwhe2p7QvLc2iG4-45">
          <mxGeometry y="26" width="140" height="26" as="geometry" />
        </mxCell>
        <mxCell id="-UJnBMwhe2p7QvLc2iG4-80" value="+ method: connect()" style="text;strokeColor=none;fillColor=none;align=left;verticalAlign=top;spacingLeft=4;spacingRight=4;overflow=hidden;rotatable=0;points=[[0,0.5],[1,0.5]];portConstraint=eastwest;whiteSpace=wrap;html=1;" vertex="1" parent="-UJnBMwhe2p7QvLc2iG4-45">
          <mxGeometry y="52" width="140" height="26" as="geometry" />
        </mxCell>
        <mxCell id="-UJnBMwhe2p7QvLc2iG4-83" value="+ method: ping()" style="text;strokeColor=none;fillColor=none;align=left;verticalAlign=top;spacingLeft=4;spacingRight=4;overflow=hidden;rotatable=0;points=[[0,0.5],[1,0.5]];portConstraint=eastwest;whiteSpace=wrap;html=1;" vertex="1" parent="-UJnBMwhe2p7QvLc2iG4-45">
          <mxGeometry y="78" width="140" height="26" as="geometry" />
        </mxCell>
        <mxCell id="-UJnBMwhe2p7QvLc2iG4-49" value="Net" style="swimlane;fontStyle=0;childLayout=stackLayout;horizontal=1;startSize=26;fillColor=none;horizontalStack=0;resizeParent=1;resizeParentMax=0;resizeLast=0;collapsible=1;marginBottom=0;whiteSpace=wrap;html=1;" vertex="1" parent="1">
          <mxGeometry x="-100" y="450" width="140" height="156" as="geometry" />
        </mxCell>
        <mxCell id="-UJnBMwhe2p7QvLc2iG4-60" value="+ field: ipAdress" style="text;strokeColor=none;fillColor=none;align=left;verticalAlign=top;spacingLeft=4;spacingRight=4;overflow=hidden;rotatable=0;points=[[0,0.5],[1,0.5]];portConstraint=eastwest;whiteSpace=wrap;html=1;" vertex="1" parent="-UJnBMwhe2p7QvLc2iG4-49">
          <mxGeometry y="26" width="140" height="26" as="geometry" />
        </mxCell>
        <mxCell id="-UJnBMwhe2p7QvLc2iG4-61" value="+ field: networkPort" style="text;strokeColor=none;fillColor=none;align=left;verticalAlign=top;spacingLeft=4;spacingRight=4;overflow=hidden;rotatable=0;points=[[0,0.5],[1,0.5]];portConstraint=eastwest;whiteSpace=wrap;html=1;" vertex="1" parent="-UJnBMwhe2p7QvLc2iG4-49">
          <mxGeometry y="52" width="140" height="26" as="geometry" />
        </mxCell>
        <mxCell id="-UJnBMwhe2p7QvLc2iG4-50" value="+ method: init()" style="text;strokeColor=none;fillColor=none;align=left;verticalAlign=top;spacingLeft=4;spacingRight=4;overflow=hidden;rotatable=0;points=[[0,0.5],[1,0.5]];portConstraint=eastwest;whiteSpace=wrap;html=1;" vertex="1" parent="-UJnBMwhe2p7QvLc2iG4-49">
          <mxGeometry y="78" width="140" height="26" as="geometry" />
        </mxCell>
        <mxCell id="-UJnBMwhe2p7QvLc2iG4-51" value="+ method: send()" style="text;strokeColor=none;fillColor=none;align=left;verticalAlign=top;spacingLeft=4;spacingRight=4;overflow=hidden;rotatable=0;points=[[0,0.5],[1,0.5]];portConstraint=eastwest;whiteSpace=wrap;html=1;" vertex="1" parent="-UJnBMwhe2p7QvLc2iG4-49">
          <mxGeometry y="104" width="140" height="26" as="geometry" />
        </mxCell>
        <mxCell id="-UJnBMwhe2p7QvLc2iG4-52" value="+ method: receive()" style="text;strokeColor=none;fillColor=none;align=left;verticalAlign=top;spacingLeft=4;spacingRight=4;overflow=hidden;rotatable=0;points=[[0,0.5],[1,0.5]];portConstraint=eastwest;whiteSpace=wrap;html=1;" vertex="1" parent="-UJnBMwhe2p7QvLc2iG4-49">
          <mxGeometry y="130" width="140" height="26" as="geometry" />
        </mxCell>
        <mxCell id="-UJnBMwhe2p7QvLc2iG4-53" value="NetServer" style="swimlane;fontStyle=0;childLayout=stackLayout;horizontal=1;startSize=26;fillColor=none;horizontalStack=0;resizeParent=1;resizeParentMax=0;resizeLast=0;collapsible=1;marginBottom=0;whiteSpace=wrap;html=1;" vertex="1" parent="1">
          <mxGeometry x="-100" y="731" width="180" height="78" as="geometry" />
        </mxCell>
        <mxCell id="-UJnBMwhe2p7QvLc2iG4-54" value="+ method: init()" style="text;strokeColor=none;fillColor=none;align=left;verticalAlign=top;spacingLeft=4;spacingRight=4;overflow=hidden;rotatable=0;points=[[0,0.5],[1,0.5]];portConstraint=eastwest;whiteSpace=wrap;html=1;" vertex="1" parent="-UJnBMwhe2p7QvLc2iG4-53">
          <mxGeometry y="26" width="180" height="26" as="geometry" />
        </mxCell>
        <mxCell id="-UJnBMwhe2p7QvLc2iG4-79" value="+ method: waitForConnection()" style="text;strokeColor=none;fillColor=none;align=left;verticalAlign=top;spacingLeft=4;spacingRight=4;overflow=hidden;rotatable=0;points=[[0,0.5],[1,0.5]];portConstraint=eastwest;whiteSpace=wrap;html=1;" vertex="1" parent="-UJnBMwhe2p7QvLc2iG4-53">
          <mxGeometry y="52" width="180" height="26" as="geometry" />
        </mxCell>
        <mxCell id="-UJnBMwhe2p7QvLc2iG4-95" style="edgeStyle=orthogonalEdgeStyle;rounded=0;orthogonalLoop=1;jettySize=auto;html=1;" edge="1" parent="1" source="-UJnBMwhe2p7QvLc2iG4-67" target="-UJnBMwhe2p7QvLc2iG4-49">
          <mxGeometry relative="1" as="geometry" />
        </mxCell>
        <mxCell id="-UJnBMwhe2p7QvLc2iG4-96" style="edgeStyle=orthogonalEdgeStyle;rounded=0;orthogonalLoop=1;jettySize=auto;html=1;" edge="1" parent="1" source="-UJnBMwhe2p7QvLc2iG4-67" target="-UJnBMwhe2p7QvLc2iG4-42">
          <mxGeometry relative="1" as="geometry" />
        </mxCell>
        <mxCell id="-UJnBMwhe2p7QvLc2iG4-98" style="edgeStyle=orthogonalEdgeStyle;rounded=0;orthogonalLoop=1;jettySize=auto;html=1;entryX=0.5;entryY=0;entryDx=0;entryDy=0;" edge="1" parent="1" source="-UJnBMwhe2p7QvLc2iG4-67" target="-UJnBMwhe2p7QvLc2iG4-74">
          <mxGeometry relative="1" as="geometry" />
        </mxCell>
        <mxCell id="-UJnBMwhe2p7QvLc2iG4-99" style="edgeStyle=orthogonalEdgeStyle;rounded=0;orthogonalLoop=1;jettySize=auto;html=1;entryX=0.5;entryY=0;entryDx=0;entryDy=0;" edge="1" parent="1" source="-UJnBMwhe2p7QvLc2iG4-67" target="-UJnBMwhe2p7QvLc2iG4-32">
          <mxGeometry relative="1" as="geometry" />
        </mxCell>
        <mxCell id="-UJnBMwhe2p7QvLc2iG4-67" value="Game" style="swimlane;fontStyle=0;childLayout=stackLayout;horizontal=1;startSize=26;fillColor=none;horizontalStack=0;resizeParent=1;resizeParentMax=0;resizeLast=0;collapsible=1;marginBottom=0;whiteSpace=wrap;html=1;" vertex="1" parent="1">
          <mxGeometry x="460" y="60" width="191" height="182" as="geometry" />
        </mxCell>
        <mxCell id="-UJnBMwhe2p7QvLc2iG4-68" value="+ field: gameType" style="text;strokeColor=none;fillColor=none;align=left;verticalAlign=top;spacingLeft=4;spacingRight=4;overflow=hidden;rotatable=0;points=[[0,0.5],[1,0.5]];portConstraint=eastwest;whiteSpace=wrap;html=1;" vertex="1" parent="-UJnBMwhe2p7QvLc2iG4-67">
          <mxGeometry y="26" width="191" height="26" as="geometry" />
        </mxCell>
        <mxCell id="-UJnBMwhe2p7QvLc2iG4-91" value="+ field: turn" style="text;strokeColor=none;fillColor=none;align=left;verticalAlign=top;spacingLeft=4;spacingRight=4;overflow=hidden;rotatable=0;points=[[0,0.5],[1,0.5]];portConstraint=eastwest;whiteSpace=wrap;html=1;" vertex="1" parent="-UJnBMwhe2p7QvLc2iG4-67">
          <mxGeometry y="52" width="191" height="26" as="geometry" />
        </mxCell>
        <mxCell id="-UJnBMwhe2p7QvLc2iG4-69" value="+ method: gameLoop()" style="text;strokeColor=none;fillColor=none;align=left;verticalAlign=top;spacingLeft=4;spacingRight=4;overflow=hidden;rotatable=0;points=[[0,0.5],[1,0.5]];portConstraint=eastwest;whiteSpace=wrap;html=1;" vertex="1" parent="-UJnBMwhe2p7QvLc2iG4-67">
          <mxGeometry y="78" width="191" height="26" as="geometry" />
        </mxCell>
        <mxCell id="-UJnBMwhe2p7QvLc2iG4-81" value="+ method: selectGameType()" style="text;strokeColor=none;fillColor=none;align=left;verticalAlign=top;spacingLeft=4;spacingRight=4;overflow=hidden;rotatable=0;points=[[0,0.5],[1,0.5]];portConstraint=eastwest;whiteSpace=wrap;html=1;" vertex="1" parent="-UJnBMwhe2p7QvLc2iG4-67">
          <mxGeometry y="104" width="191" height="26" as="geometry" />
        </mxCell>
        <mxCell id="-UJnBMwhe2p7QvLc2iG4-86" value="+ method: selectClientServer()" style="text;strokeColor=none;fillColor=none;align=left;verticalAlign=top;spacingLeft=4;spacingRight=4;overflow=hidden;rotatable=0;points=[[0,0.5],[1,0.5]];portConstraint=eastwest;whiteSpace=wrap;html=1;" vertex="1" parent="-UJnBMwhe2p7QvLc2iG4-67">
          <mxGeometry y="130" width="191" height="26" as="geometry" />
        </mxCell>
        <mxCell id="-UJnBMwhe2p7QvLc2iG4-73" value="+ method: checkIfWon()" style="text;strokeColor=none;fillColor=none;align=left;verticalAlign=top;spacingLeft=4;spacingRight=4;overflow=hidden;rotatable=0;points=[[0,0.5],[1,0.5]];portConstraint=eastwest;whiteSpace=wrap;html=1;" vertex="1" parent="-UJnBMwhe2p7QvLc2iG4-67">
          <mxGeometry y="156" width="191" height="26" as="geometry" />
        </mxCell>
        <mxCell id="-UJnBMwhe2p7QvLc2iG4-74" value="Computer" style="swimlane;fontStyle=0;childLayout=stackLayout;horizontal=1;startSize=26;fillColor=none;horizontalStack=0;resizeParent=1;resizeParentMax=0;resizeLast=0;collapsible=1;marginBottom=0;whiteSpace=wrap;html=1;" vertex="1" parent="1">
          <mxGeometry x="220" y="190" width="180" height="70" as="geometry" />
        </mxCell>
        <mxCell id="-UJnBMwhe2p7QvLc2iG4-75" value="+ mathod: superAdvancedTurboShoot()" style="text;strokeColor=none;fillColor=none;align=left;verticalAlign=top;spacingLeft=4;spacingRight=4;overflow=hidden;rotatable=0;points=[[0,0.5],[1,0.5]];portConstraint=eastwest;whiteSpace=wrap;html=1;" vertex="1" parent="-UJnBMwhe2p7QvLc2iG4-74">
          <mxGeometry y="26" width="180" height="44" as="geometry" />
        </mxCell>
        <mxCell id="-UJnBMwhe2p7QvLc2iG4-101" style="edgeStyle=orthogonalEdgeStyle;rounded=0;orthogonalLoop=1;jettySize=auto;html=1;entryX=0.5;entryY=0;entryDx=0;entryDy=0;" edge="1" parent="1" source="-UJnBMwhe2p7QvLc2iG4-66" target="-UJnBMwhe2p7QvLc2iG4-49">
          <mxGeometry relative="1" as="geometry">
            <Array as="points">
              <mxPoint x="125" y="370" />
              <mxPoint x="-30" y="370" />
            </Array>
          </mxGeometry>
        </mxCell>
      </root>
    </mxGraphModel>
  </diagram>
</mxfile>
